<svg width="240" height="40" viewBox="0 0 240 40" fill="none" xmlns="http://www.w3.org/2000/svg">
<path fill-rule="evenodd" clip-rule="evenodd" d="M25.0008 29.1905H36.6675V10.8571H25.0008V29.1905ZM23.3341 29.1905V10.8571H20.8341V14.1905H21.6675V15.8571H20.8341V19.1905H21.6675V20.8571H20.8341V24.1905H21.6675V25.8571H20.8341V29.1905H23.3341ZM38.3341 10.0238V30.0238C38.3341 30.4838 37.9616 30.8571 37.5008 30.8571H25.0008H23.3341H20.0008C19.54 30.8571 19.1675 30.4838 19.1675 30.0238V25.8571H18.3341V24.1905H19.1675V20.8571H18.3341V19.1905H19.1675V15.8571H18.3341V14.1905H19.1675V10.0238C19.1675 9.56379 19.54 9.19045 20.0008 9.19045H37.5008C37.9616 9.19045 38.3341 9.56379 38.3341 10.0238ZM19.1675 32.5238H20.8341V34.5046C20.8341 34.8063 20.6708 35.0846 20.4066 35.2321L15.74 37.8396C15.6133 37.9104 15.4733 37.9454 15.3333 37.9454C15.185 37.9454 15.0358 37.9054 14.9041 37.8263L6.23746 32.6105C5.98746 32.4596 5.83413 32.1888 5.83413 31.8963V26.4638L2.13413 24.6554C1.84913 24.5154 1.66746 24.2246 1.66746 23.9071L1.66663 19.3096L1.66746 15.4405C1.66746 15.1388 1.83079 14.8605 2.09413 14.713L5.83413 12.623V6.85795C5.83413 6.55878 5.99413 6.28212 6.25496 6.13378L14.3316 1.52628C14.575 1.38795 14.8725 1.37962 15.12 1.50628L20.3758 4.16712C20.6566 4.30795 20.8333 4.59628 20.8333 4.90962L20.8341 7.52295L19.1675 7.52379L19.1666 5.42212L14.7683 3.19628L13.3341 4.01378V10.0238H11.6675V4.96462L7.50079 7.34128V12.0205L11.37 14.3655L15.0008 12.0721V8.75379H16.6675V12.5313C16.6675 12.8171 16.5208 13.083 16.2791 13.2355L12.5008 15.623V18.3571H15.8341V19.9471H11.9208L7.93746 22.3996L7.06329 20.9804L10.8341 18.6588V15.9896L7.17496 13.7721C7.14329 13.7971 7.10913 13.8196 7.07413 13.8388L3.33413 15.9296L3.33329 18.4671L7.03829 15.9971L7.96329 17.3838L3.33329 20.4704L3.33413 23.3871L7.03329 25.1954C7.07996 25.218 7.11829 25.2505 7.15913 25.2804L9.50079 23.5238L10.5008 24.8571L7.50079 27.1063V31.4254L11.3508 33.743L12.5008 32.7838V25.8571H14.1675V31.3955L16.1675 29.728L17.2358 31.0088L12.8625 34.653L15.3491 36.1488L19.1675 34.0154V32.5238Z" fill="url(#paint0_linear_2281_2813)"/>
<path d="M53.6437 34.0688C53.1062 34.0688 52.5437 34.0188 51.9562 33.9188C51.3812 33.8188 50.8625 33.6875 50.4 33.525C50.2 33.4625 50.0687 33.3875 50.0062 33.3C49.9437 33.2125 49.9125 33.075 49.9125 32.8875V31.9688C49.9125 31.7188 50.0062 31.5938 50.1937 31.5938C50.2562 31.5938 50.325 31.6 50.4 31.6125C50.4875 31.625 50.6312 31.6625 50.8312 31.725C51.2187 31.8375 51.675 31.9375 52.2 32.025C52.725 32.1 53.2062 32.1375 53.6437 32.1375C54.5187 32.1375 55.1937 31.9813 55.6687 31.6688C56.1562 31.3563 56.4 30.8938 56.4 30.2813C56.4 29.8438 56.25 29.4938 55.95 29.2313C55.6625 28.9563 55.1625 28.6813 54.45 28.4063L52.7812 27.7688C51.7562 27.3688 51 26.8938 50.5125 26.3438C50.025 25.7938 49.7812 25.0938 49.7812 24.2438C49.7812 23.0563 50.1937 22.1313 51.0187 21.4688C51.8562 20.7938 52.9562 20.4563 54.3187 20.4563C55.2562 20.4563 56.2625 20.6188 57.3375 20.9438C57.525 20.9938 57.65 21.0625 57.7125 21.15C57.7875 21.2375 57.825 21.3813 57.825 21.5813V22.4813C57.825 22.7313 57.7312 22.8563 57.5437 22.8563C57.4312 22.8563 57.2187 22.8125 56.9062 22.725C56.0437 22.5 55.2437 22.3875 54.5062 22.3875C53.7062 22.3875 53.0875 22.525 52.65 22.8C52.225 23.0625 52.0125 23.4813 52.0125 24.0563C52.0125 24.4813 52.1625 24.8313 52.4625 25.1063C52.7625 25.3688 53.2937 25.6438 54.0562 25.9313L55.65 26.5125C56.725 26.9 57.4875 27.375 57.9375 27.9375C58.4 28.4875 58.6312 29.1813 58.6312 30.0188C58.6312 31.2688 58.1875 32.2563 57.3 32.9813C56.425 33.7063 55.2062 34.0688 53.6437 34.0688Z" fill="black"/>
<path d="M63.2653 34.0313C62.4028 34.0313 61.6965 33.7688 61.1465 33.2438C60.5965 32.7188 60.3215 32.0375 60.3215 31.2C60.3215 30.275 60.6528 29.5375 61.3153 28.9875C61.9778 28.4375 62.8778 28.1625 64.0153 28.1625C64.6778 28.1625 65.4028 28.2563 66.1903 28.4438V27.3375C66.1903 26.7125 66.0528 26.275 65.7778 26.025C65.5153 25.7625 65.034 25.6313 64.334 25.6313C63.909 25.6313 63.4465 25.675 62.9465 25.7625C62.4465 25.85 61.9778 25.9625 61.5403 26.1C61.4153 26.1375 61.309 26.1563 61.2215 26.1563C61.059 26.1563 60.9778 26.0375 60.9778 25.8V25.1063C60.9778 24.9063 61.009 24.775 61.0715 24.7125C61.134 24.6375 61.259 24.5625 61.4465 24.4875C61.934 24.3 62.459 24.1625 63.0215 24.075C63.584 23.975 64.1403 23.925 64.6903 23.925C65.9153 23.925 66.8153 24.175 67.3903 24.675C67.9778 25.175 68.2715 25.9563 68.2715 27.0188V33.3375C68.2715 33.6125 68.134 33.75 67.859 33.75H66.8653C66.5903 33.75 66.434 33.625 66.3965 33.375L66.3028 32.8313C65.8778 33.2063 65.3965 33.5 64.859 33.7125C64.334 33.925 63.8028 34.0313 63.2653 34.0313ZM63.884 32.4563C64.2465 32.4563 64.6278 32.375 65.0278 32.2125C65.4403 32.05 65.8278 31.8313 66.1903 31.5563V29.7563C65.9153 29.6938 65.6215 29.6438 65.309 29.6063C64.9965 29.5688 64.7028 29.55 64.4278 29.55C63.1278 29.55 62.4778 30.0563 62.4778 31.0688C62.4778 31.4938 62.5965 31.8313 62.834 32.0813C63.084 32.3313 63.434 32.4563 63.884 32.4563Z" fill="black"/>
<path d="M74.4628 37.8375C74.0503 37.8375 73.6066 37.7938 73.1316 37.7063C72.6691 37.6313 72.1816 37.4938 71.6691 37.2938C71.4691 37.2188 71.3378 37.1375 71.2753 37.05C71.2253 36.9625 71.2003 36.8375 71.2003 36.675V35.9063C71.2003 35.6688 71.2878 35.55 71.4628 35.55C71.5253 35.55 71.5816 35.5563 71.6316 35.5688C71.6816 35.5813 71.7941 35.6188 71.9691 35.6813C72.4066 35.8188 72.8128 35.9188 73.1878 35.9813C73.5628 36.0438 73.9441 36.075 74.3316 36.075C75.2691 36.075 75.9503 35.8563 76.3753 35.4188C76.8003 34.9938 77.0128 34.2938 77.0128 33.3188V32.5125C76.6253 32.85 76.1941 33.1125 75.7191 33.3C75.2566 33.475 74.7691 33.5625 74.2566 33.5625C73.4941 33.5625 72.8253 33.3688 72.2503 32.9813C71.6753 32.5813 71.2253 32.025 70.9003 31.3125C70.5878 30.6 70.4316 29.7563 70.4316 28.7813C70.4316 27.8063 70.5878 26.9563 70.9003 26.2313C71.2253 25.4938 71.6816 24.925 72.2691 24.525C72.8566 24.125 73.5441 23.925 74.3316 23.925C75.4191 23.925 76.3628 24.3063 77.1628 25.0688L77.2753 24.5813C77.3253 24.3313 77.4878 24.2063 77.7628 24.2063H78.7753C79.0503 24.2063 79.1878 24.3438 79.1878 24.6188V33.0938C79.1878 34.6063 78.7816 35.775 77.9691 36.6C77.1566 37.425 75.9878 37.8375 74.4628 37.8375ZM74.9128 31.8563C75.6503 31.8563 76.3503 31.6125 77.0128 31.125V26.325C76.6753 26.0875 76.3316 25.9188 75.9816 25.8188C75.6316 25.7063 75.2816 25.65 74.9316 25.65C73.4316 25.65 72.6816 26.6688 72.6816 28.7063C72.6816 30.8063 73.4253 31.8563 74.9128 31.8563Z" fill="black"/>
<path d="M86.1996 34.0313C84.6121 34.0313 83.4121 33.6063 82.5996 32.7563C81.7996 31.8938 81.3996 30.6563 81.3996 29.0438C81.3996 27.4063 81.7996 26.1438 82.5996 25.2563C83.3996 24.3688 84.5058 23.925 85.9183 23.925C87.1433 23.925 88.0808 24.2625 88.7308 24.9375C89.3933 25.6 89.7246 26.5438 89.7246 27.7688C89.7246 27.9813 89.7121 28.2063 89.6871 28.4438C89.6746 28.6688 89.6558 28.8875 89.6308 29.1C89.6183 29.225 89.5808 29.325 89.5183 29.4C89.4558 29.475 89.3558 29.5125 89.2183 29.5125H83.4433C83.4808 30.5 83.7558 31.2063 84.2683 31.6313C84.7808 32.0563 85.5308 32.2688 86.5183 32.2688C87.2683 32.2688 88.0558 32.15 88.8808 31.9125C89.0683 31.8625 89.1871 31.8375 89.2371 31.8375C89.4246 31.8375 89.5183 31.9625 89.5183 32.2125V32.8875C89.5183 33.0875 89.4871 33.225 89.4246 33.3C89.3621 33.375 89.2371 33.45 89.0496 33.525C88.6246 33.6875 88.1621 33.8125 87.6621 33.9C87.1746 33.9875 86.6871 34.0313 86.1996 34.0313ZM83.4433 28.0313H87.7746V27.8813C87.7746 26.3188 87.1246 25.5375 85.8246 25.5375C85.1496 25.5375 84.5996 25.7625 84.1746 26.2125C83.7496 26.6625 83.5058 27.2688 83.4433 28.0313Z" fill="black"/>
<path d="M93.7221 33.75H92.4846C92.2096 33.75 92.0721 33.6125 92.0721 33.3375V21.1688C92.0721 20.8938 92.2034 20.7563 92.4659 20.7563H94.1909C94.3534 20.7563 94.4721 20.7875 94.5471 20.85C94.6346 20.9 94.7096 20.9938 94.7721 21.1313L98.5034 28.5L102.31 21.1313C102.372 20.9938 102.441 20.9 102.516 20.85C102.603 20.7875 102.728 20.7563 102.891 20.7563H104.522C104.797 20.7563 104.935 20.8938 104.935 21.1688V33.3375C104.935 33.6125 104.797 33.75 104.522 33.75H103.285C103.01 33.75 102.872 33.6125 102.872 33.3375V24.0188L99.6659 30.1125C99.5909 30.2625 99.5159 30.3625 99.4409 30.4125C99.3659 30.4625 99.2472 30.4875 99.0846 30.4875H97.8284C97.6659 30.4875 97.5409 30.4625 97.4534 30.4125C97.3784 30.3625 97.3034 30.2625 97.2284 30.1125L94.1347 24.0563V33.3375C94.1347 33.6125 93.9971 33.75 93.7221 33.75Z" fill="black"/>
<path d="M110.159 34.0313C109.296 34.0313 108.59 33.7688 108.04 33.2438C107.49 32.7188 107.215 32.0375 107.215 31.2C107.215 30.275 107.546 29.5375 108.209 28.9875C108.871 28.4375 109.771 28.1625 110.909 28.1625C111.571 28.1625 112.296 28.2563 113.084 28.4438V27.3375C113.084 26.7125 112.946 26.275 112.671 26.025C112.409 25.7625 111.927 25.6313 111.227 25.6313C110.802 25.6313 110.34 25.675 109.84 25.7625C109.34 25.85 108.871 25.9625 108.434 26.1C108.309 26.1375 108.202 26.1563 108.115 26.1563C107.952 26.1563 107.871 26.0375 107.871 25.8V25.1063C107.871 24.9063 107.902 24.775 107.965 24.7125C108.027 24.6375 108.152 24.5625 108.34 24.4875C108.827 24.3 109.352 24.1625 109.915 24.075C110.477 23.975 111.034 23.925 111.584 23.925C112.809 23.925 113.709 24.175 114.284 24.675C114.871 25.175 115.165 25.9563 115.165 27.0188V33.3375C115.165 33.6125 115.027 33.75 114.752 33.75H113.759C113.484 33.75 113.327 33.625 113.29 33.375L113.196 32.8313C112.771 33.2063 112.29 33.5 111.752 33.7125C111.227 33.925 110.696 34.0313 110.159 34.0313ZM110.777 32.4563C111.14 32.4563 111.521 32.375 111.921 32.2125C112.334 32.05 112.721 31.8313 113.084 31.5563V29.7563C112.809 29.6938 112.515 29.6438 112.202 29.6063C111.89 29.5688 111.596 29.55 111.321 29.55C110.021 29.55 109.371 30.0563 109.371 31.0688C109.371 31.4938 109.49 31.8313 109.727 32.0813C109.977 32.3313 110.327 32.4563 110.777 32.4563Z" fill="black"/>
<path d="M119.612 33.75H118.225C117.95 33.75 117.812 33.6125 117.812 33.3375V20.2875C117.812 20.0125 117.95 19.875 118.225 19.875H119.612C119.887 19.875 120.025 20.0125 120.025 20.2875V28.3313L123.587 24.525C123.725 24.3875 123.837 24.3 123.925 24.2625C124.012 24.225 124.162 24.2063 124.375 24.2063H125.781C126.019 24.2063 126.137 24.2938 126.137 24.4688C126.137 24.5813 126.081 24.7 125.969 24.825L122.144 28.7625L126.287 33.1313C126.4 33.2563 126.456 33.375 126.456 33.4875C126.456 33.6625 126.337 33.75 126.1 33.75H124.544C124.369 33.75 124.237 33.7313 124.15 33.6938C124.062 33.6438 123.95 33.55 123.812 33.4125L120.025 29.3063V33.3375C120.025 33.6125 119.887 33.75 119.612 33.75Z" fill="black"/>
<path d="M131.903 34.0313C130.315 34.0313 129.115 33.6063 128.303 32.7563C127.503 31.8938 127.103 30.6563 127.103 29.0438C127.103 27.4063 127.503 26.1438 128.303 25.2563C129.103 24.3688 130.209 23.925 131.621 23.925C132.846 23.925 133.784 24.2625 134.434 24.9375C135.096 25.6 135.428 26.5438 135.428 27.7688C135.428 27.9813 135.415 28.2063 135.39 28.4438C135.378 28.6688 135.359 28.8875 135.334 29.1C135.321 29.225 135.284 29.325 135.221 29.4C135.159 29.475 135.059 29.5125 134.921 29.5125H129.146C129.184 30.5 129.459 31.2063 129.971 31.6313C130.484 32.0563 131.234 32.2688 132.221 32.2688C132.971 32.2688 133.759 32.15 134.584 31.9125C134.771 31.8625 134.89 31.8375 134.94 31.8375C135.128 31.8375 135.221 31.9625 135.221 32.2125V32.8875C135.221 33.0875 135.19 33.225 135.128 33.3C135.065 33.375 134.94 33.45 134.753 33.525C134.328 33.6875 133.865 33.8125 133.365 33.9C132.878 33.9875 132.39 34.0313 131.903 34.0313ZM129.146 28.0313H133.478V27.8813C133.478 26.3188 132.828 25.5375 131.528 25.5375C130.853 25.5375 130.303 25.7625 129.878 26.2125C129.453 26.6625 129.209 27.2688 129.146 28.0313Z" fill="black"/>
<path d="M139.388 33.75H138C137.725 33.75 137.588 33.6125 137.588 33.3375V24.6188C137.588 24.3438 137.725 24.2063 138 24.2063H138.994C139.157 24.2063 139.275 24.2313 139.35 24.2813C139.425 24.3188 139.475 24.4125 139.5 24.5625L139.725 25.6313C140.138 25.1813 140.563 24.8188 141 24.5438C141.438 24.2688 141.957 24.1313 142.557 24.1313H142.632C142.982 24.1313 143.182 24.1938 143.232 24.3188C143.294 24.4313 143.325 24.575 143.325 24.75V25.7625C143.325 26.025 143.213 26.1563 142.988 26.1563C142.913 26.1563 142.807 26.15 142.669 26.1375C142.544 26.125 142.407 26.1188 142.257 26.1188C141.794 26.1188 141.35 26.1813 140.925 26.3063C140.513 26.4313 140.138 26.6063 139.8 26.8313V33.3375C139.8 33.6125 139.663 33.75 139.388 33.75Z" fill="black"/>
<path d="M153.271 34.0688C152.734 34.0688 152.171 34.0188 151.584 33.9188C151.009 33.8188 150.49 33.6875 150.028 33.525C149.828 33.4625 149.696 33.3875 149.634 33.3C149.571 33.2125 149.54 33.075 149.54 32.8875V31.9688C149.54 31.7188 149.634 31.5938 149.821 31.5938C149.884 31.5938 149.953 31.6 150.028 31.6125C150.115 31.625 150.259 31.6625 150.459 31.725C150.846 31.8375 151.303 31.9375 151.828 32.025C152.353 32.1 152.834 32.1375 153.271 32.1375C154.146 32.1375 154.821 31.9813 155.296 31.6688C155.784 31.3563 156.028 30.8938 156.028 30.2813C156.028 29.8438 155.878 29.4938 155.578 29.2313C155.29 28.9563 154.79 28.6813 154.078 28.4063L152.409 27.7688C151.384 27.3688 150.628 26.8938 150.14 26.3438C149.653 25.7938 149.409 25.0938 149.409 24.2438C149.409 23.0563 149.821 22.1313 150.646 21.4688C151.484 20.7938 152.584 20.4563 153.946 20.4563C154.884 20.4563 155.89 20.6188 156.965 20.9438C157.153 20.9938 157.278 21.0625 157.34 21.15C157.415 21.2375 157.453 21.3813 157.453 21.5813V22.4813C157.453 22.7313 157.359 22.8563 157.171 22.8563C157.059 22.8563 156.846 22.8125 156.534 22.725C155.671 22.5 154.871 22.3875 154.134 22.3875C153.334 22.3875 152.715 22.525 152.278 22.8C151.853 23.0625 151.64 23.4813 151.64 24.0563C151.64 24.4813 151.79 24.8313 152.09 25.1063C152.39 25.3688 152.921 25.6438 153.684 25.9313L155.278 26.5125C156.353 26.9 157.115 27.375 157.565 27.9375C158.028 28.4875 158.259 29.1813 158.259 30.0188C158.259 31.2688 157.815 32.2563 156.928 32.9813C156.053 33.7063 154.834 34.0688 153.271 34.0688Z" fill="black"/>
<path d="M163.962 33.8813C162.024 33.8813 161.055 32.9438 161.055 31.0688V25.8938H159.855C159.58 25.8938 159.443 25.7563 159.443 25.4813V24.9375C159.443 24.65 159.574 24.4875 159.837 24.45L161.13 24.2625L161.412 21.9938C161.449 21.7188 161.605 21.5813 161.88 21.5813H162.855C163.13 21.5813 163.268 21.7188 163.268 21.9938V24.2063H165.574C165.849 24.2063 165.987 24.3438 165.987 24.6188V25.4813C165.987 25.7563 165.849 25.8938 165.574 25.8938H163.268V30.9563C163.268 31.3813 163.368 31.6875 163.568 31.875C163.78 32.05 164.13 32.1375 164.618 32.1375C164.905 32.1375 165.13 32.1188 165.293 32.0813C165.468 32.0438 165.618 32.025 165.743 32.025C165.955 32.025 166.062 32.1438 166.062 32.3813V33.0563C166.062 33.2563 166.024 33.4 165.949 33.4875C165.887 33.5625 165.762 33.625 165.574 33.675C165.049 33.8125 164.512 33.8813 163.962 33.8813Z" fill="black"/>
<path d="M170.518 34.0313C169.618 34.0313 168.931 33.7813 168.456 33.2813C167.981 32.7813 167.743 32.075 167.743 31.1625V24.6188C167.743 24.3438 167.881 24.2063 168.156 24.2063H169.543C169.818 24.2063 169.956 24.3438 169.956 24.6188V30.5063C169.956 31.1188 170.081 31.5688 170.331 31.8563C170.593 32.1438 170.993 32.2875 171.531 32.2875C171.893 32.2875 172.274 32.225 172.674 32.1C173.074 31.975 173.474 31.7813 173.874 31.5188V24.6188C173.874 24.3438 174.012 24.2063 174.287 24.2063H175.674C175.949 24.2063 176.087 24.3438 176.087 24.6188V33.3375C176.087 33.6125 175.949 33.75 175.674 33.75H174.681C174.518 33.75 174.399 33.7313 174.324 33.6938C174.249 33.6438 174.199 33.5438 174.174 33.3938L174.024 32.7C172.849 33.5875 171.681 34.0313 170.518 34.0313Z" fill="black"/>
<path d="M182.255 33.9563C181.455 33.9563 180.755 33.7563 180.155 33.3563C179.568 32.9563 179.112 32.3875 178.787 31.65C178.462 30.9 178.299 30.0188 178.299 29.0063C178.299 27.9813 178.468 27.0875 178.805 26.325C179.143 25.5625 179.612 24.975 180.212 24.5625C180.824 24.1375 181.543 23.925 182.368 23.925C183.368 23.925 184.28 24.25 185.105 24.9V20.2875C185.105 20.0125 185.243 19.875 185.518 19.875H186.905C187.18 19.875 187.318 20.0125 187.318 20.2875V33.3375C187.318 33.6125 187.18 33.75 186.905 33.75H185.818C185.543 33.75 185.38 33.625 185.33 33.375L185.199 32.8313C184.799 33.1813 184.349 33.4563 183.849 33.6563C183.349 33.8563 182.818 33.9563 182.255 33.9563ZM182.949 32.2125C183.687 32.2125 184.405 31.975 185.105 31.5V26.3438C184.755 26.0938 184.399 25.9188 184.037 25.8188C183.687 25.7188 183.337 25.6688 182.987 25.6688C182.149 25.6688 181.53 25.9375 181.13 26.475C180.743 27 180.549 27.8125 180.549 28.9125C180.549 31.1125 181.349 32.2125 182.949 32.2125Z" fill="black"/>
<path d="M191.192 22.6313C190.78 22.6313 190.455 22.5188 190.217 22.2938C189.98 22.0563 189.861 21.7438 189.861 21.3563C189.861 20.9563 189.98 20.6438 190.217 20.4188C190.455 20.1938 190.78 20.0813 191.192 20.0813C191.605 20.0813 191.93 20.1938 192.167 20.4188C192.405 20.6438 192.523 20.9563 192.523 21.3563C192.523 21.7438 192.405 22.0563 192.167 22.2938C191.93 22.5188 191.605 22.6313 191.192 22.6313ZM190.498 33.75C190.223 33.75 190.086 33.6125 190.086 33.3375V24.6188C190.086 24.3438 190.223 24.2063 190.498 24.2063H191.886C192.161 24.2063 192.298 24.3438 192.298 24.6188V33.3375C192.298 33.6125 192.161 33.75 191.886 33.75H190.498Z" fill="black"/>
<path d="M199.19 34.0313C197.752 34.0313 196.621 33.5875 195.796 32.7C194.983 31.8125 194.577 30.5688 194.577 28.9688C194.577 27.3688 194.983 26.1313 195.796 25.2563C196.621 24.3688 197.752 23.925 199.19 23.925C200.627 23.925 201.752 24.3688 202.565 25.2563C203.39 26.1313 203.802 27.3688 203.802 28.9688C203.802 30.5688 203.39 31.8125 202.565 32.7C201.752 33.5875 200.627 34.0313 199.19 34.0313ZM199.19 32.2875C199.965 32.2875 200.552 32.0188 200.952 31.4813C201.352 30.9438 201.552 30.1063 201.552 28.9688C201.552 27.8313 201.352 27 200.952 26.475C200.552 25.9375 199.965 25.6688 199.19 25.6688C198.427 25.6688 197.84 25.9375 197.427 26.475C197.027 27 196.827 27.8313 196.827 28.9688C196.827 30.1063 197.027 30.9438 197.427 31.4813C197.84 32.0188 198.427 32.2875 199.19 32.2875Z" fill="black"/>
<path d="M51.705 13.975C51.015 13.975 50.45 13.765 50.01 13.345C49.57 12.925 49.35 12.38 49.35 11.71C49.35 10.97 49.615 10.38 50.145 9.94002C50.675 9.50002 51.395 9.28001 52.305 9.28001C52.835 9.28001 53.415 9.35502 54.045 9.50501V8.62002C54.045 8.12002 53.935 7.77002 53.715 7.57001C53.505 7.36001 53.12 7.25501 52.56 7.25501C52.22 7.25501 51.85 7.29001 51.45 7.36001C51.05 7.43001 50.675 7.52002 50.325 7.63002C50.225 7.66001 50.14 7.67501 50.07 7.67501C49.94 7.67501 49.875 7.58001 49.875 7.39002V6.83501C49.875 6.67501 49.9 6.57001 49.95 6.52002C50 6.46001 50.1 6.40001 50.25 6.34002C50.64 6.19002 51.06 6.08002 51.51 6.01001C51.96 5.93001 52.405 5.89001 52.845 5.89001C53.825 5.89001 54.545 6.09001 55.005 6.49001C55.475 6.89001 55.71 7.51501 55.71 8.36502V13.42C55.71 13.64 55.6 13.75 55.38 13.75H54.585C54.365 13.75 54.24 13.65 54.21 13.45L54.135 13.015C53.795 13.315 53.41 13.55 52.98 13.72C52.56 13.89 52.135 13.975 51.705 13.975ZM52.2 12.715C52.49 12.715 52.795 12.65 53.115 12.52C53.445 12.39 53.755 12.215 54.045 11.995V10.555C53.825 10.505 53.59 10.465 53.34 10.435C53.09 10.405 52.855 10.39 52.635 10.39C51.595 10.39 51.075 10.795 51.075 11.605C51.075 11.945 51.17 12.215 51.36 12.415C51.56 12.615 51.84 12.715 52.2 12.715Z" fill="black"/>
<path d="M59.268 13.75H58.158C57.938 13.75 57.828 13.64 57.828 13.42V6.44502C57.828 6.22502 57.938 6.11502 58.158 6.11502H58.953C59.183 6.11502 59.318 6.22002 59.358 6.43001L59.463 6.88001C60.433 6.22001 61.353 5.89001 62.223 5.89001C62.703 5.89001 63.098 5.98001 63.408 6.16001C63.728 6.33001 63.973 6.58502 64.143 6.92502C65.143 6.23501 66.103 5.89001 67.023 5.89001C67.413 5.89001 67.778 5.96001 68.118 6.10001C68.458 6.23002 68.733 6.46002 68.943 6.79002C69.153 7.12002 69.258 7.57002 69.258 8.14002V13.42C69.258 13.64 69.148 13.75 68.928 13.75H67.818C67.598 13.75 67.488 13.64 67.488 13.42V8.57502C67.488 8.11502 67.398 7.78501 67.218 7.58502C67.038 7.38502 66.743 7.28501 66.333 7.28501C66.003 7.28501 65.663 7.34002 65.313 7.45002C64.963 7.56002 64.668 7.69002 64.428 7.84002V13.42C64.428 13.64 64.318 13.75 64.098 13.75H62.988C62.768 13.75 62.658 13.64 62.658 13.42V8.57502C62.658 8.11502 62.568 7.78501 62.388 7.58502C62.208 7.38502 61.913 7.28501 61.503 7.28501C61.243 7.28501 60.943 7.33002 60.603 7.42002C60.273 7.50001 59.938 7.64001 59.598 7.84002V13.42C59.598 13.64 59.488 13.75 59.268 13.75Z" fill="black"/>
<path d="M73.2528 13.975C72.5628 13.975 71.9978 13.765 71.5578 13.345C71.1178 12.925 70.8978 12.38 70.8978 11.71C70.8978 10.97 71.1628 10.38 71.6928 9.94002C72.2228 9.50002 72.9428 9.28001 73.8528 9.28001C74.3828 9.28001 74.9628 9.35502 75.5928 9.50501V8.62002C75.5928 8.12002 75.4828 7.77002 75.2628 7.57001C75.0528 7.36001 74.6678 7.25501 74.1078 7.25501C73.7678 7.25501 73.3978 7.29001 72.9978 7.36001C72.5978 7.43001 72.2228 7.52002 71.8728 7.63002C71.7728 7.66001 71.6878 7.67501 71.6178 7.67501C71.4878 7.67501 71.4228 7.58001 71.4228 7.39002V6.83501C71.4228 6.67501 71.4478 6.57001 71.4978 6.52002C71.5478 6.46001 71.6478 6.40001 71.7978 6.34002C72.1878 6.19002 72.6078 6.08002 73.0578 6.01001C73.5078 5.93001 73.9528 5.89001 74.3928 5.89001C75.3728 5.89001 76.0928 6.09001 76.5528 6.49001C77.0228 6.89001 77.2578 7.51501 77.2578 8.36502V13.42C77.2578 13.64 77.1478 13.75 76.9278 13.75H76.1328C75.9128 13.75 75.7878 13.65 75.7578 13.45L75.6828 13.015C75.3428 13.315 74.9578 13.55 74.5278 13.72C74.1078 13.89 73.6828 13.975 73.2528 13.975ZM73.7478 12.715C74.0378 12.715 74.3428 12.65 74.6628 12.52C74.9928 12.39 75.3028 12.215 75.5928 11.995V10.555C75.3728 10.505 75.1378 10.465 74.8878 10.435C74.6378 10.405 74.4028 10.39 74.1828 10.39C73.1428 10.39 72.6228 10.795 72.6228 11.605C72.6228 11.945 72.7178 12.215 72.9078 12.415C73.1078 12.615 73.3878 12.715 73.7478 12.715Z" fill="black"/>
<path d="M84.6859 13.75H79.1359C78.9159 13.75 78.8059 13.64 78.8059 13.42V12.85C78.8059 12.67 78.8159 12.545 78.8359 12.475C78.8659 12.395 78.9459 12.28 79.0759 12.13L83.0659 7.46501H79.2859C79.0659 7.46501 78.9559 7.35502 78.9559 7.13502V6.44502C78.9559 6.22502 79.0659 6.11502 79.2859 6.11502H84.6409C84.8609 6.11502 84.9709 6.22502 84.9709 6.44502V7.01501C84.9709 7.18502 84.9559 7.31002 84.9259 7.39002C84.9059 7.47002 84.8309 7.58502 84.7009 7.73502L80.7109 12.4H84.6859C84.9059 12.4 85.0159 12.51 85.0159 12.73V13.42C85.0159 13.64 84.9059 13.75 84.6859 13.75Z" fill="black"/>
<path d="M89.7657 13.975C88.6157 13.975 87.7107 13.62 87.0507 12.91C86.4007 12.2 86.0757 11.205 86.0757 9.92501C86.0757 8.64502 86.4007 7.65502 87.0507 6.95502C87.7107 6.24501 88.6157 5.89001 89.7657 5.89001C90.9157 5.89001 91.8157 6.24501 92.4657 6.95502C93.1257 7.65502 93.4557 8.64502 93.4557 9.92501C93.4557 11.205 93.1257 12.2 92.4657 12.91C91.8157 13.62 90.9157 13.975 89.7657 13.975ZM89.7657 12.58C90.3857 12.58 90.8557 12.365 91.1757 11.935C91.4957 11.505 91.6557 10.835 91.6557 9.92501C91.6557 9.01501 91.4957 8.35002 91.1757 7.93002C90.8557 7.50002 90.3857 7.28501 89.7657 7.28501C89.1557 7.28501 88.6857 7.50002 88.3557 7.93002C88.0357 8.35002 87.8757 9.01501 87.8757 9.92501C87.8757 10.835 88.0357 11.505 88.3557 11.935C88.6857 12.365 89.1557 12.58 89.7657 12.58Z" fill="black"/>
<path d="M96.6655 13.75H95.5555C95.3355 13.75 95.2255 13.64 95.2255 13.42V6.44502C95.2255 6.22502 95.3355 6.11502 95.5555 6.11502H96.3505C96.4805 6.11502 96.5755 6.13502 96.6355 6.17502C96.6955 6.20502 96.7355 6.28001 96.7555 6.40002L96.8755 6.95502C97.8155 6.24501 98.7955 5.89001 99.8155 5.89001C100.555 5.89001 101.11 6.08501 101.48 6.47502C101.86 6.85502 102.05 7.41002 102.05 8.14002V13.42C102.05 13.64 101.94 13.75 101.72 13.75H100.61C100.39 13.75 100.28 13.64 100.28 13.42V8.69502C100.28 8.19501 100.18 7.83502 99.9805 7.61502C99.7805 7.39502 99.4605 7.28501 99.0205 7.28501C98.6905 7.28501 98.3505 7.34502 98.0005 7.46501C97.6605 7.57502 97.3255 7.73502 96.9955 7.94501V13.42C96.9955 13.64 96.8855 13.75 96.6655 13.75Z" fill="black"/>
<path d="M218.965 33.75H211.522C211.247 33.75 211.109 33.6125 211.109 33.3375V21.1687C211.109 20.8937 211.247 20.7562 211.522 20.7562H212.984C213.259 20.7562 213.397 20.8937 213.397 21.1687V31.875H218.965C219.24 31.875 219.378 32.0125 219.378 32.2875V33.3375C219.378 33.6125 219.24 33.75 218.965 33.75Z" fill="#7002FE"/>
<path d="M223.245 34.0312C222.382 34.0312 221.676 33.7688 221.126 33.2438C220.576 32.7188 220.301 32.0375 220.301 31.2C220.301 30.275 220.632 29.5375 221.294 28.9875C221.957 28.4375 222.857 28.1625 223.994 28.1625C224.657 28.1625 225.382 28.2563 226.17 28.4438V27.3375C226.17 26.7125 226.032 26.275 225.757 26.025C225.495 25.7625 225.013 25.6312 224.313 25.6312C223.888 25.6312 223.426 25.675 222.926 25.7625C222.426 25.85 221.957 25.9625 221.52 26.1C221.395 26.1375 221.288 26.1562 221.201 26.1562C221.038 26.1562 220.957 26.0375 220.957 25.8V25.1062C220.957 24.9062 220.988 24.775 221.051 24.7125C221.113 24.6375 221.238 24.5625 221.426 24.4875C221.913 24.3 222.438 24.1625 223.001 24.075C223.563 23.975 224.12 23.925 224.67 23.925C225.895 23.925 226.794 24.175 227.369 24.675C227.957 25.175 228.251 25.9562 228.251 27.0187V33.3375C228.251 33.6125 228.113 33.75 227.838 33.75H226.844C226.569 33.75 226.413 33.625 226.376 33.375L226.282 32.8313C225.857 33.2063 225.376 33.5 224.838 33.7125C224.313 33.925 223.782 34.0312 223.245 34.0312ZM223.863 32.4562C224.226 32.4562 224.607 32.375 225.007 32.2125C225.419 32.05 225.807 31.8313 226.17 31.5563V29.7562C225.895 29.6937 225.601 29.6437 225.288 29.6062C224.976 29.5687 224.682 29.55 224.407 29.55C223.107 29.55 222.457 30.0562 222.457 31.0687C222.457 31.4937 222.576 31.8313 222.813 32.0813C223.063 32.3313 223.413 32.4562 223.863 32.4562Z" fill="#7002FE"/>
<path d="M235.905 33.9563C235.355 33.9563 234.823 33.8563 234.311 33.6563C233.798 33.4563 233.348 33.1625 232.961 32.775L232.83 33.375C232.78 33.625 232.617 33.75 232.342 33.75H231.311C231.036 33.75 230.898 33.6125 230.898 33.3375V20.2875C230.898 20.0125 231.036 19.875 231.311 19.875H232.698C232.973 19.875 233.111 20.0125 233.111 20.2875V25.05C233.536 24.6875 233.992 24.4125 234.48 24.225C234.98 24.025 235.505 23.925 236.055 23.925C236.842 23.925 237.53 24.125 238.117 24.525C238.705 24.925 239.155 25.4938 239.467 26.2312C239.792 26.9563 239.955 27.825 239.955 28.8375C239.955 29.8625 239.786 30.7625 239.448 31.5375C239.123 32.3 238.655 32.8938 238.042 33.3188C237.442 33.7438 236.73 33.9563 235.905 33.9563ZM235.342 32.2125C236.917 32.2125 237.705 31.1125 237.705 28.9125C237.705 27.8 237.511 26.9813 237.123 26.4563C236.748 25.9313 236.161 25.6687 235.361 25.6687C234.548 25.6687 233.798 25.9062 233.111 26.3812V31.4812C233.811 31.9687 234.555 32.2125 235.342 32.2125Z" fill="#7002FE"/>
<defs>
<linearGradient id="paint0_linear_2281_2813" x1="20.0004" y1="1.41663" x2="20.0004" y2="37.9454" gradientUnits="userSpaceOnUse">
<stop stop-color="#7C00FF"/>
<stop offset="1" stop-color="#3100FF"/>
</linearGradient>
</defs>
</svg>
